HIERARCHY
ROOT root     
{
	OFFSET 0.0000 0.0000 0.0000
	CHANNELS 6 Xposition Yposition Zposition Zrotation Yrotation Xrotation
	JOINT pelvis   
	{
		OFFSET 0.0000 0.0000 0.0000
		CHANNELS 3 Zrotation Yrotation Xrotation
		JOINT thorax   
		{
			OFFSET 0.0000 23.0750 -5.0000
			CHANNELS 3 Zrotation Yrotation Xrotation
			JOINT rclavicle
			{
				OFFSET 0.0000 28.0009 0.0000
				CHANNELS 3 Zrotation Yrotation Xrotation
				JOINT rhumerus 
				{
					OFFSET -18.5725 5.5939 0.0000
					CHANNELS 3 Zrotation Yrotation Xrotation
					JOINT rradius  
					{
						OFFSET -24.8459 0.0000 0.0000
						CHANNELS 3 Zrotation Yrotation Xrotation
						JOINT rhand    
						{
							OFFSET -24.5477 0.0000 0.0000
							CHANNELS 3 Zrotation Yrotation Xrotation
							End Site
							{
								OFFSET -8.1826 0.0000 0.0000
							}
						}
					}
				}
			}
			JOINT lclavicle
			{
				OFFSET 0.0000 28.0009 0.0000
				CHANNELS 3 Zrotation Yrotation Xrotation
				JOINT lhumerus 
				{
					OFFSET 18.5725 5.5939 0.0000
					CHANNELS 3 Zrotation Yrotation Xrotation
					JOINT lradius  
					{
						OFFSET 24.8459 0.0000 0.0000
						CHANNELS 3 Zrotation Yrotation Xrotation
						JOINT lhand    
						{
							OFFSET 24.5477 0.0000 0.0000
							CHANNELS 3 Zrotation Yrotation Xrotation
							End Site
							{
								OFFSET 8.1826 0.0000 0.0000
							}
						}
					}
				}
			}
			JOINT head     
			{
				OFFSET 0.0000 35.2030 0.0000
				CHANNELS 3 Zrotation Yrotation Xrotation
				End Site
				{
					OFFSET 0.0000 11.7343 0.0000
				}
			}
		}
		JOINT rfemur   
		{
			OFFSET -8.2817 0.0000 0.0000
			CHANNELS 3 Zrotation Yrotation Xrotation
			JOINT rtibia   
			{
				OFFSET 0.0000 -43.3627 0.0000
				CHANNELS 3 Zrotation Yrotation Xrotation
				JOINT rfoot    
				{
					OFFSET 0.0000 -38.2947 0.0000
					CHANNELS 3 Zrotation Yrotation Xrotation
					JOINT rtoes    
					{
						OFFSET 0.0000 0.0000 16.6054
						CHANNELS 3 Zrotation Yrotation Xrotation
						End Site
						{
							OFFSET 0.0000 0.0000 5.5351
						}
					}
				}
			}
		}
		JOINT lfemur   
		{
			OFFSET 8.2817 0.0000 0.0000
			CHANNELS 3 Zrotation Yrotation Xrotation
			JOINT ltibia   
			{
				OFFSET 0.0000 -43.3627 0.0000
				CHANNELS 3 Zrotation Yrotation Xrotation
				JOINT lfoot    
				{
					OFFSET 0.0000 -38.2947 0.0000
					CHANNELS 3 Zrotation Yrotation Xrotation
					JOINT ltoes    
					{
						OFFSET 0.0000 0.0000 16.6054
						CHANNELS 3 Zrotation Yrotation Xrotation
						End Site
						{
							OFFSET 0.0000 0.0000 5.5351
						}
					}
				}
			}
		}
	}
}
MOTION
Frames: 19
Frame Time: .0333333
19.375 77.691 8.0154 -143.819 -83.8769 163.415 0 -0 0 -9.48622 1.77462 14.4337 23.6579 -6.73037 2.50616e-06 58.6352 3.29704 3.86463 -0 55.6683 -0 -2.72498 4.98018 -0.118504 -19.8064 14.954 4.12764e-06 -56.2045 3.50222 1.46309 0 -49.8827 0 1.67215 3.52846 0.0515024 0.752993 5.00432 -20.1372 1.30387 -9.4909 -27.9935 -0 -0 79.1932 -2.30617e-06 -7.5573 10.1897 -1.34452 -2.47632e-06 -40.4923 -9.14894 12.3807 -53.131 -0 -0 58.7676 -4.56793e-05 16.1569 -14.66 -4.19341 -1.98931e-05 -12.6865 
18.781 77.837 8.0784 -142.507 -83.9593 162.135 0 -0 0 -9.37758 1.4502 14.5529 23.7334 -6.72821 1.38949e-05 58.8162 3.17437 3.72899 -0 54.4302 -0 -2.66491 4.95902 -0.1154 -19.7047 14.7124 -5.59071e-05 -56.1431 2.85633 1.01811 0 -50.4965 0 1.95282 3.48659 0.0594007 0.74113 5.0817 -20.132 1.55105 -9.40579 -29.065 -0 -0 79.7814 -2.06351e-07 -8.04992 8.65349 -1.21895 8.44402e-06 -38.6801 -9.06132 12.3985 -52.5974 -0 -0 58.565 4.1695e-05 16.1011 -14.8671 -4.23568 -4.59524e-06 -12.9023 
18.189 77.978 8.1408 -141.084 -84.0524 160.735 0 -0 0 -9.25435 1.1149 14.6773 23.8016 -6.74702 1.96799e-05 58.9645 3.01352 3.62844 -0 53.2631 -0 -2.58308 4.92792 -0.1112 -19.5833 14.4741 -0.000113977 -56.0847 2.24531 0.584517 0 -51.1796 0 2.20181 3.4601 0.0665003 0.750196 5.15957 -20.1445 1.79003 -9.32842 -30.1329 -0 -0 80.266 -1.36988e-05 -8.32812 7.21542 -1.0533 -3.68847e-06 -37.0627 -8.97957 12.4157 -52.0596 -0 -0 58.3581 7.18471e-05 16.0362 -15.0795 -4.27669 1.45586e-05 -13.1022 
17.596 78.114 8.2021 -139.56 -84.1612 159.229 0 -0 0 -9.11681 0.771984 14.805 23.863 -6.78815 2.40125e-05 59.0808 2.82136 3.56701 -0 52.1615 -0 -2.47879 4.88447 -0.105699 -19.447 14.2556 1.27855e-05 -56.0231 1.65371 0.176489 0 -51.9295 0 2.42276 3.44562 0.0729028 0.777285 5.24105 -20.1774 2.02161 -9.25547 -31.194 -0 -0 80.6422 3.78461e-06 -8.41193 5.91791 -0.87351 4.27151e-06 -35.6707 -8.90269 12.4393 -51.5135 -0 -0 58.1441 8.55034e-05 15.9623 -15.3031 -4.3172 -1.18919e-05 -13.2893 
17.004 78.244 8.2617 -137.949 -84.2575 157.624 0 -0 0 -8.96661 0.424788 14.9336 23.9215 -6.84952 -1.43659e-05 59.1657 2.60079 3.54253 -4.15074e-07 51.1254 -8.6777e-07 -2.35042 4.82722 -0.0991018 -19.3025 14.0651 0.000113362 -55.9493 1.0803 -0.199196 4.43023e-07 -52.7471 -8.93506e-07 2.62 3.44081 0.0786999 0.81953 5.32893 -20.2324 2.24698 -9.18352 -32.2505 -0 -0 80.9128 6.53536e-07 -8.33014 4.78241 -0.699401 -2.82927e-06 -34.5161 -8.82951 12.4737 -50.9615 -0 -0 57.9261 4.29544e-05 15.8778 -15.5389 -4.35754 -2.29295e-05 -13.4687 
16.411 78.368 8.3184 -136.263 -84.3528 155.937 0 -0 0 -8.80156 0.0792833 15.0612 23.9728 -6.92494 2.78462e-05 59.2247 2.35109 3.55796 -3.99221e-07 50.1457 -8.53298e-07 -2.20992 4.76808 -0.0920004 -19.1503 13.8792 3.88966e-05 -55.8695 0.554296 -0.5638 0 -53.6412 0 2.79163 3.43734 0.0838027 0.874271 5.42216 -20.3085 2.46996 -9.10655 -33.3021 -0 -0 81.0804 2.68892e-06 -8.11966 3.80851 -0.542897 3.64607e-06 -33.5881 -8.75523 12.525 -50.4025 -0 -0 57.7059 -4.06482e-05 15.7833 -15.7833 -4.39633 -1.7607e-05 -13.6546 
15.818 78.488 8.3726 -134.534 -84.4292 154.203 0 -0 0 -8.62409 -0.264054 15.1848 24.0264 -7.01815 -5.28747e-05 59.2493 2.08107 3.60503 -0 49.2304 -0 -2.04511 4.69457 -0.0838004 -19.0022 13.7381 0.00012514 -55.7608 0.0265929 -0.872604 0 -54.5934 0 2.94965 3.43736 0.0885028 0.938537 5.52395 -20.4068 2.68979 -9.02146 -34.3517 -0 -0 81.1492 -6.07473e-07 -7.81826 2.97882 -0.408795 -5.3701e-06 -32.857 -8.67917 12.592 -49.8403 -0 -0 57.4847 -0.000105945 15.6794 -16.0326 -4.43269 1.46013e-05 -13.8583 
15.227 78.602 8.4229 -132.761 -84.4959 152.421 0 -0 0 -8.43184 -0.597611 15.3047 24.0774 -7.12116 -1.69874e-05 59.2459 1.78801 3.68709 -0 48.3671 -0 -1.87481 4.62635 -0.0757015 -18.8532 13.6041 7.08878e-05 -55.6337 -0.460606 -1.15995 0 -55.6101 0 3.08726 3.43071 0.0924992 1.01064 5.62969 -20.5236 2.91164 -8.92025 -35.3999 -0 -0 81.1227 -5.07307e-06 -7.46744 2.26621 -0.297 -2.05715e-07 -32.289 -8.59466 12.6775 -49.2776 -0 -0 57.2677 -6.76709e-05 15.5674 -16.2767 -4.46472 1.59702e-05 -14.1011 
14.637 78.713 8.4701 -131.026 -84.5508 150.677 0 -0 0 -8.22966 -0.921686 15.4182 24.1366 -7.23442 3.1083e-05 59.2094 1.47422 3.78904 -0 47.5703 -0 -1.68777 4.55009 -0.0671029 -18.7179 13.509 5.71796e-05 -55.4651 -0.947789 -1.38874 0 -56.6772 0 3.21479 3.42281 0.0961002 1.08992 5.74113 -20.6574 3.13109 -8.80055 -36.4498 -0 -0 81.0046 -1.89562e-06 -7.10124 1.63463 -0.203596 2.04973e-06 -31.8288 -8.50363 12.7751 -48.7192 -0 -0 57.0591 5.55919e-05 15.4517 -16.5081 -4.49119 2.07411e-06 -14.3901 
14.05 78.819 8.5127 -129.326 -84.5695 148.966 0 -0 0 -8.01275 -1.22842 15.5253 24.1983 -7.35314 4.22394e-05 59.147 1.13913 3.91429 -0 46.8294 -0 -1.50257 4.48393 -0.0587993 -18.5866 13.4199 3.27267e-05 -55.2701 -1.40449 -1.58929 0 -57.7873 0 3.32274 3.40462 0.0987986 1.17569 5.85147 -20.8034 3.35338 -8.65409 -37.4991 -0 -0 80.7978 -2.24209e-07 -6.75374 1.0535 -0.124796 7.51858e-07 -31.4475 -8.39832 12.8869 -48.1681 -0 -0 56.8646 0.000128564 15.3343 -16.7207 -4.51104 2.01246e-06 -14.7403 
13.466 78.922 8.5526 -127.748 -84.5799 147.377 0 -0 0 -7.79175 -1.51931 15.6259 24.2715 -7.47619 -5.77876e-07 59.0561 0.782238 4.04684 -3.41595e-07 46.1529 -8.01767e-07 -1.31068 4.41589 -0.0504992 -18.4695 13.3581 -0.000106735 -55.0269 -1.85888 -1.73699 0 -58.9328 0 3.41786 3.38448 0.100998 1.2687 5.96199 -20.9584 3.5689 -8.48104 -38.5508 -0 -0 80.5057 4.31113e-07 -6.4443 0.491999 -0.0556 -1.00382e-08 -31.0868 -8.28602 13.0041 -47.6267 -0 -0 56.6837 -6.12483e-05 15.2235 -16.9079 -4.52511 -1.93115e-05 -15.1451 
12.885 79.022 8.5883 -126.292 -84.5643 145.911 0 -0 0 -7.56181 -1.78885 15.7212 24.3494 -7.60056 2.81203e-05 58.9428 0.403324 4.18726 -0 45.5344 -0 -1.12559 4.35831 -0.0427995 -18.3585 13.3022 -6.25493e-05 -54.7505 -2.29603 -1.85295 0 -60.0982 0 3.48963 3.35681 0.102298 1.3682 6.06661 -21.1183 3.78074 -8.27579 -39.5992 -0 -0 80.1254 -4.9091e-08 -6.19003 -0.0655999 0.00709989 -9.77466e-08 -30.73 -8.16115 13.1266 -47.098 -0 -0 56.5215 7.27565e-05 15.119 -17.0663 -4.53366 -1.16478e-05 -15.6116 
12.307 79.118 8.62 -124.977 -84.5336 144.587 0 -0 0 -7.32532 -2.03565 15.8119 24.4321 -7.72422 7.4104e-05 58.8144 0.0011443 4.32727 -0 44.9752 -0 -0.948994 4.30883 -0.0357001 -18.25 13.2511 0.000109091 -54.4412 -2.71953 -1.94067 0 -61.2742 0 3.5346 3.32294 0.102599 1.47432 6.16342 -21.2772 3.98626 -8.03789 -40.6408 -0 -0 79.6562 7.32501e-07 -5.99645 -0.627097 0.0659001 4.51158e-07 -30.3549 -8.02596 13.2544 -46.5811 -0 -0 56.3785 7.42577e-05 15.0246 -17.1976 -4.53761 6.09833e-06 -16.1316 
11.733 79.21 8.6492 -123.865 -84.489 143.467 0 -0 0 -7.09107 -2.26267 15.8969 24.5243 -7.8484 3.20991e-06 58.6713 -0.4212 4.46121 -0 44.4706 -0 -0.778486 4.26107 -0.0289997 -18.1487 13.2142 -0.000104714 -54.0913 -3.14087 -1.99578 4.78409e-07 -62.4494 -7.89197e-07 3.55258 3.29006 0.102101 1.58745 6.25307 -21.4307 4.17638 -7.7723 -41.6756 -0 -0 79.1016 -1.87225e-06 -5.85827 -1.19046 0.122102 -4.55799e-07 -29.9313 -7.88902 13.3826 -46.0759 -0 -0 56.2523 4.06341e-06 14.9437 -17.3048 -4.53914 -8.59574e-06 -16.6866 
11.16 79.298 8.6758 -122.937 -84.4407 142.53 0 -0 0 -6.8595 -2.47003 15.9786 24.6181 -7.97218 7.14249e-05 58.5243 -0.863223 4.58678 -3.14625e-07 44.0188 -7.78352e-07 -0.617401 4.21615 -0.0227002 -18.0481 13.183 -7.47766e-05 -53.7115 -3.55623 -2.03011 0 -63.6083 0 3.53794 3.25741 0.100601 1.70667 6.33391 -21.5765 4.35007 -7.48248 -42.6947 -0 -0 78.4589 2.34761e-06 -5.76821 -1.74153 0.175896 -2.4191e-06 -29.4656 -7.75324 13.5151 -45.5812 -0 -0 56.1405 -9.05964e-05 14.8755 -17.393 -4.5396 1.38197e-07 -17.2676 
10.589 79.381 8.7002 -122.21 -84.385 141.792 0 -0 0 -6.63257 -2.66061 16.0566 24.7145 -8.09811 -9.94968e-06 58.3738 -1.31947 4.70465 -0 43.6123 -0 -0.465699 4.17145 -0.0170002 -17.9449 13.1625 2.57084e-05 -53.3065 -3.97031 -2.04743 7.57585e-07 -64.7431 -1.19506e-06 3.48885 3.22755 0.098303 1.83035 6.40613 -21.7097 4.50646 -7.17544 -43.6984 -0 -0 77.7313 -5.23955e-07 -5.71436 -2.25951 0.225998 -4.7795e-07 -28.9695 -7.62155 13.6519 -45.0936 -0 -0 56.0411 -4.48472e-05 14.8173 -17.4693 -4.54042 1.35035e-05 -17.8628 
10.018 79.459 8.723 -121.645 -84.3281 141.216 0 -0 0 -6.41208 -2.8385 16.1309 24.8091 -8.22808 -9.71185e-06 58.2274 -1.78678 4.81614 -0 43.2488 -0 -0.322295 4.12526 -0.0115997 -17.8393 13.1513 5.90808e-05 -52.8773 -4.3835 -2.05369 0 -65.8437 0 3.40521 3.2015 0.0952 1.95722 6.47041 -21.83 4.64544 -6.86079 -44.683 -0 -0 76.9206 -1.89364e-06 -5.68402 -2.7209 0.270696 1.24382e-06 -28.4638 -7.49925 13.7974 -44.6108 -0 -0 55.9505 -1.99745e-05 14.7684 -17.5397 -4.54241 1.3061e-05 -18.4634 
9.4453 79.531 8.7451 -121.249 -84.2772 140.806 0 -0 0 -6.20279 -3.01015 16.2002 24.9036 -8.36942 -2.27717e-06 58.0829 -2.25381 4.93149 -0 42.9196 -0 -0.1867 4.07517 -0.00660005 -17.7324 13.1575 -2.19833e-06 -52.4248 -4.80117 -2.04823 0 -66.8982 0 3.29272 3.18382 0.0915014 2.08627 6.52878 -21.9362 4.76707 -6.5519 -45.6486 -0 -0 76.0338 2.93011e-06 -5.66428 -3.10515 0.3078 -1.60594e-06 -27.9707 -7.39109 13.9498 -44.129 -0 -0 55.8649 6.92166e-05 14.7242 -17.6126 -4.54647 -2.03964e-05 -19.056 
8.8717 79.597 8.7654 -120.974 -84.2192 140.512 0 -0 0 -5.99618 -3.1768 16.2674 24.9915 -8.51059 5.13283e-05 57.9456 -2.73582 5.0338 -0 42.6333 -0 -0.0533004 4.02607 -0.00190001 -17.6134 13.167 9.28861e-05 -51.97 -5.20983 -2.04616 -9.41198e-07 -67.8985 6.33638e-07 3.14898 3.16583 0.0870004 2.21507 6.57883 -22.0309 4.88234 -6.25583 -46.5904 -0 -0 75.0739 -1.24362e-06 -5.65128 -3.38962 0.335202 2.79008e-07 -27.5562 -7.29233 14.1174 -43.6468 -0 -0 55.7843 0.000113619 14.6791 -17.6909 -4.55143 -5.51185e-06 -19.6573 
